<?xml version="1.0" standalone="no"?>
<!DOCTYPE svg PUBLIC "-//W3C//DTD SVG 20010904//EN"
 "http://www.w3.org/TR/2001/REC-SVG-20010904/DTD/svg10.dtd">
<svg version="1.0" xmlns="http://www.w3.org/2000/svg"
 width="300.000000pt" height="169.000000pt" viewBox="0 0 300.000000 169.000000"
 preserveAspectRatio="xMidYMid meet">
<metadata>
Created by potrace 1.10, written by Peter Selinger 2001-2011
</metadata>
<g transform="translate(0.000000,169.000000) scale(0.100000,-0.100000)"
fill="#000000" stroke="none">
<path d="M1474 1612 l-40 -37 -13 -139 -12 -138 47 -55 c26 -30 53 -57 60 -60
7 -3 16 -24 20 -49 3 -24 12 -48 19 -54 8 -6 48 -12 90 -13 101 -3 109 7 77
97 -30 87 -28 114 13 207 19 44 35 86 35 93 0 27 -108 109 -216 164 l-41 21
-39 -37z m164 -46 c51 -32 100 -69 109 -82 15 -24 14 -28 -20 -102 -42 -91
-55 -163 -33 -181 18 -15 40 -106 30 -122 -8 -14 -140 -5 -159 11 -7 6 -15 26
-18 45 -4 21 -19 48 -39 68 -18 18 -46 47 -61 65 -28 33 -28 33 -17 111 6 43
11 104 12 135 1 53 4 60 37 87 20 16 43 28 51 26 8 -2 57 -30 108 -61z"/>
<path d="M1330 1234 c-94 -44 -119 -69 -166 -170 -24 -52 -44 -98 -44 -104 0
-5 13 -10 29 -10 40 0 44 -10 21 -55 -24 -47 -16 -59 49 -79 26 -7 71 -24 100
-36 51 -23 53 -23 71 -4 10 10 25 51 34 89 11 51 21 74 38 85 56 37 69 55 70
95 1 22 -6 57 -16 78 -22 44 -102 137 -119 137 -7 0 -37 -12 -67 -26z m148
-73 c31 -47 42 -72 42 -101 0 -55 -8 -68 -51 -90 -36 -19 -38 -24 -54 -97 -24
-108 -30 -112 -102 -81 -32 14 -75 31 -95 38 -49 15 -53 24 -33 66 21 45 14
62 -25 66 l-31 3 47 96 c40 83 52 100 95 128 28 18 67 38 87 46 48 17 64 7
120 -74z"/>
<path d="M1723 1048 c-13 -6 -23 -14 -23 -18 0 -4 -34 -2 -75 5 l-75 11 0 -38
c0 -34 -4 -40 -41 -58 -43 -23 -63 -57 -78 -134 l-8 -43 58 -6 c32 -3 79 -13
104 -23 l46 -17 57 39 c57 39 58 40 101 27 25 -7 45 -12 45 -10 1 1 9 17 19
34 10 18 20 54 23 80 l6 48 -66 58 c-35 31 -66 57 -68 56 -2 0 -13 -5 -25 -11z
m53 -27 c14 -17 41 -40 61 -52 34 -21 35 -24 29 -66 -7 -53 -32 -103 -51 -103
-7 0 -26 5 -40 10 -23 9 -34 5 -84 -30 l-57 -40 -57 20 c-31 11 -75 20 -98 20
-42 0 -42 0 -36 33 11 66 34 105 76 127 36 18 41 25 41 55 0 39 7 41 90 26 37
-8 48 -6 68 10 31 24 29 24 58 -10z"/>
<path d="M1686 745 c-55 -40 -100 -45 -182 -20 -66 20 -84 19 -116 -8 -19 -16
-30 -40 -42 -92 l-16 -70 40 -37 c21 -21 44 -38 50 -38 6 0 21 24 35 54 l24
53 103 5 c72 4 126 13 178 30 l75 25 3 55 3 55 -33 6 c-18 4 -42 8 -53 11 -13
3 -38 -7 -69 -29z m117 8 c26 -5 28 -8 25 -50 l-3 -45 -70 -24 c-50 -18 -101
-27 -176 -31 l-107 -6 -23 -48 c-12 -27 -28 -49 -34 -49 -16 0 -65 49 -65 65
0 6 5 37 11 69 13 63 48 101 84 93 171 -41 200 -39 258 14 22 20 38 27 52 23
11 -3 33 -8 48 -11z"/>
<path d="M1803 605 c-32 -13 -121 -29 -250 -44 -67 -8 -87 -22 -98 -73 -5 -22
-12 -28 -32 -28 -20 0 -24 -4 -18 -17 4 -10 10 -49 12 -86 5 -58 8 -67 22 -61
32 13 98 23 161 24 82 0 105 12 149 78 28 41 41 52 62 52 42 0 60 36 51 106
-4 32 -11 59 -17 60 -5 2 -25 -3 -42 -11z m47 -58 c3 -26 3 -47 -1 -47 -4 0
-9 -9 -12 -20 -4 -15 -14 -20 -36 -20 -25 0 -34 -6 -50 -37 -38 -76 -59 -86
-181 -93 -61 -4 -116 -12 -124 -19 -12 -10 -14 -5 -14 36 -1 27 -5 61 -11 76
-10 25 -8 27 13 27 18 0 25 7 29 28 10 49 28 63 97 72 157 21 226 32 240 41
30 18 45 5 50 -44z"/>
<path d="M1274 516 c-29 -13 -33 -20 -45 -86 -10 -59 -20 -82 -56 -128 -47
-61 -50 -75 -28 -159 17 -68 39 -89 99 -98 70 -11 81 -3 126 93 l41 87 -12
120 c-11 113 -14 122 -42 153 -35 36 -39 37 -83 18z m70 -18 c22 -20 27 -38
41 -144 l16 -120 -43 -90 -43 -89 -41 1 c-72 1 -101 20 -114 72 -26 106 -26
108 23 168 40 47 48 65 58 128 11 64 16 75 38 84 37 14 37 14 65 -10z"/>
</g>
</svg>
