<?xml version="1.0" standalone="no"?>
<!DOCTYPE svg PUBLIC "-//W3C//DTD SVG 20010904//EN"
 "http://www.w3.org/TR/2001/REC-SVG-20010904/DTD/svg10.dtd">
<svg version="1.0" xmlns="http://www.w3.org/2000/svg"
 width="300.000000pt" height="567.000000pt" viewBox="0 0 300.000000 567.000000"
 preserveAspectRatio="xMidYMid meet">
<metadata>
Created by potrace 1.10, written by Peter Selinger 2001-2011
</metadata>
<g transform="translate(0.000000,567.000000) scale(0.100000,-0.100000)"
fill="#000000" stroke="none">
<path d="M1576 5565 c-15 -19 -53 -52 -84 -74 -66 -44 -141 -122 -144 -148 -1
-10 -2 -49 -2 -88 -1 -38 -7 -99 -13 -135 -7 -36 -15 -126 -17 -200 -3 -75
-12 -175 -20 -223 -9 -47 -18 -134 -21 -192 l-6 -105 63 -72 c35 -39 87 -97
116 -128 28 -31 52 -60 52 -63 0 -12 99 -99 146 -128 31 -20 44 -35 40 -45 -3
-8 5 -58 19 -111 14 -52 25 -108 25 -123 0 -15 8 -37 18 -47 19 -22 117 -48
243 -64 44 -5 103 -14 131 -19 28 -6 74 -10 103 -10 46 0 59 5 108 43 48 35
56 46 52 67 -3 14 -7 41 -9 60 -4 32 -19 90 -46 182 -6 21 -15 40 -20 43 -5 3
-14 22 -20 43 -7 20 -25 51 -40 67 l-27 30 8 105 c10 138 16 172 44 250 31 88
110 259 129 281 9 10 18 29 20 41 3 13 16 51 31 85 48 115 50 108 -62 220 -54
55 -127 119 -163 142 -36 23 -72 46 -80 51 -87 56 -147 93 -183 111 -23 12
-44 25 -47 29 -3 4 -25 18 -50 30 -25 12 -47 26 -50 29 -3 3 -32 19 -65 36
-33 16 -62 32 -65 36 -7 10 -57 29 -74 29 -8 0 -26 -16 -40 -35z m184 -61 c63
-36 131 -75 150 -86 163 -93 312 -189 387 -251 81 -65 163 -159 163 -187 0
-25 -49 -145 -109 -265 -101 -205 -136 -319 -148 -491 -6 -90 -5 -92 24 -135
47 -68 89 -168 112 -269 11 -50 21 -99 21 -109 0 -35 -69 -89 -122 -98 -35 -5
-340 40 -415 63 -29 8 -55 19 -58 24 -3 5 -19 72 -35 150 -16 78 -34 148 -40
155 -7 8 -31 25 -54 39 -40 23 -165 154 -236 246 -19 25 -50 61 -69 80 l-34
35 7 130 c4 72 13 166 20 210 7 44 14 118 15 165 2 81 19 259 26 271 2 3 5 42
6 88 2 82 2 82 43 124 23 24 66 61 96 84 30 22 66 52 79 67 14 14 32 26 40 26
9 0 68 -30 131 -66z"/>
<path d="M1120 4236 c-36 -12 -82 -30 -104 -39 -21 -9 -42 -17 -47 -17 -5 0
-27 -11 -49 -25 -22 -14 -46 -25 -54 -25 -8 0 -16 -4 -18 -9 -2 -5 -17 -17
-34 -27 -82 -49 -207 -140 -230 -166 -23 -29 -173 -323 -222 -438 -13 -30 -34
-77 -47 -105 -32 -70 -52 -116 -59 -142 -9 -28 6 -32 134 -36 l95 -2 -3 -58
c-2 -41 -11 -76 -34 -120 -30 -61 -76 -129 -90 -135 -5 -2 -8 -10 -8 -18 0 -9
5 -12 11 -8 6 3 25 -8 42 -24 22 -22 64 -42 138 -66 59 -19 117 -37 130 -40
21 -4 63 -19 228 -81 18 -6 36 -17 40 -23 3 -5 31 -19 61 -30 30 -11 69 -25
86 -32 28 -12 34 -11 58 8 49 38 84 90 84 125 0 17 9 59 21 92 11 33 23 79 26
103 3 24 15 77 26 118 11 41 23 87 25 102 8 44 56 95 130 135 38 21 73 39 79
40 27 5 107 88 111 114 28 186 28 179 9 250 -25 95 -60 165 -127 258 -32 44
-77 108 -99 142 -41 63 -135 157 -176 176 -13 6 -23 14 -23 19 0 14 -42 8
-110 -16z m154 -48 c64 -55 112 -108 155 -172 19 -28 55 -80 81 -116 104 -143
143 -258 130 -389 -13 -122 -35 -153 -160 -217 -109 -57 -153 -104 -179 -189
-12 -38 -24 -83 -27 -100 -5 -33 -31 -144 -63 -270 -16 -66 -26 -86 -55 -112
-35 -32 -69 -42 -80 -24 -3 5 -18 12 -33 16 -16 3 -68 26 -118 50 -49 24 -151
62 -225 85 -227 69 -300 103 -300 136 0 8 15 37 34 66 42 67 76 158 76 205 0
58 -21 73 -104 73 -101 0 -118 6 -113 39 3 15 16 49 30 77 14 27 44 95 67 149
60 146 187 385 223 423 43 44 213 159 312 211 90 46 237 101 274 101 15 0 46
-18 75 -42z"/>
<path d="M2386 3555 c-21 -19 -42 -33 -46 -30 -4 3 -30 -15 -58 -40 -49 -44
-75 -55 -87 -36 -3 5 -29 12 -58 16 -142 16 -314 43 -356 56 -26 9 -35 8 -42
-2 -10 -17 -1 -123 13 -161 24 -64 -19 -109 -182 -189 -76 -37 -103 -56 -111
-76 -5 -14 -18 -38 -29 -54 -22 -30 -67 -160 -75 -212 -2 -18 -9 -48 -15 -67
-5 -19 -10 -49 -10 -66 0 -17 -7 -48 -15 -67 l-15 -36 43 -5 c23 -3 96 -5 162
-4 127 3 231 -15 304 -51 20 -10 61 -26 91 -36 30 -10 63 -24 73 -33 15 -13
19 -13 35 0 9 8 39 24 66 34 26 10 67 36 90 57 22 20 59 46 81 57 22 11 64 38
94 60 66 50 91 56 144 39 23 -8 44 -14 47 -15 3 0 19 -6 35 -13 60 -23 81 -29
123 -35 40 -6 42 -5 42 18 0 28 14 64 45 116 39 64 65 154 75 255 5 55 12 112
15 126 5 20 -2 34 -32 65 -21 21 -56 48 -78 59 -22 11 -46 26 -53 33 -7 6 -18
12 -23 12 -16 0 -108 90 -146 144 -39 55 -93 116 -102 116 -4 0 -23 -16 -45
-35z m91 -52 c83 -103 161 -177 228 -216 83 -48 135 -97 135 -126 0 -55 -23
-216 -36 -254 -8 -23 -36 -86 -62 -139 l-47 -97 -35 6 c-19 3 -70 19 -113 34
-43 16 -93 29 -111 29 -34 0 -138 -60 -265 -154 -36 -27 -90 -60 -119 -74
l-53 -24 -72 23 c-40 12 -95 33 -123 46 -83 38 -204 56 -325 49 -136 -7 -140
-4 -127 84 28 175 89 348 143 402 13 14 63 44 111 68 47 24 104 60 127 80 46
41 48 56 32 188 -9 73 -17 71 135 46 52 -8 140 -21 195 -29 55 -8 109 -17 121
-20 14 -4 30 2 50 18 45 38 148 106 161 106 7 1 29 -20 50 -46z"/>
<path d="M2380 2585 c-12 -13 -27 -22 -31 -19 -5 3 -9 1 -9 -3 0 -5 -15 -17
-32 -27 -18 -11 -56 -39 -85 -63 -28 -23 -54 -43 -57 -43 -4 0 -23 -10 -44
-23 -63 -40 -117 -49 -263 -44 -132 4 -148 6 -212 26 -115 38 -238 71 -262 71
-16 0 -43 5 -61 12 -27 9 -35 9 -49 -5 -9 -10 -21 -17 -26 -17 -5 0 -45 -34
-89 -76 -73 -70 -79 -78 -76 -112 2 -20 -7 -65 -20 -102 -12 -36 -25 -90 -28
-120 -3 -30 -12 -80 -20 -110 -9 -30 -16 -70 -16 -87 0 -28 6 -36 40 -53 22
-11 40 -24 40 -28 0 -19 134 -141 170 -154 29 -11 85 9 98 35 21 42 42 99 42
116 0 9 14 43 30 75 17 33 32 69 34 80 8 41 18 54 43 59 14 2 120 2 237 0 169
-5 227 -2 291 10 44 9 98 19 120 21 40 5 124 24 200 46 41 12 109 39 183 71
23 11 55 19 70 18 29 -1 100 15 109 25 15 14 20 128 13 251 -2 39 -1 82 2 98
l7 27 -62 0 c-77 1 -166 21 -210 49 -43 27 -49 26 -77 -4z m94 -30 c54 -24 86
-31 169 -39 21 -2 40 -6 43 -8 3 -3 6 -74 7 -158 2 -173 2 -174 -82 -185 -25
-4 -84 -21 -131 -40 -108 -42 -199 -70 -275 -85 -203 -38 -226 -40 -467 -40
-218 -1 -249 -3 -266 -18 -22 -18 -88 -161 -118 -256 -23 -72 -60 -105 -99
-90 -13 5 -69 50 -124 99 -109 98 -113 107 -91 200 5 22 15 69 20 105 6 36 20
94 30 129 11 35 20 76 20 91 0 21 15 43 57 85 32 32 74 68 93 81 31 20 41 21
90 13 30 -5 71 -11 90 -13 19 -3 60 -14 90 -25 141 -50 206 -64 326 -68 169
-7 244 17 389 127 44 33 168 120 171 120 1 0 27 -11 58 -25z"/>
<path d="M2710 2029 c-19 -10 -44 -19 -55 -19 -11 0 -30 -7 -42 -15 -33 -23
-252 -73 -350 -80 -48 -4 -117 -13 -153 -21 -36 -8 -114 -21 -175 -29 -60 -8
-144 -20 -185 -26 -41 -7 -103 -13 -138 -14 -56 -1 -66 -5 -96 -34 -42 -41
-116 -188 -116 -232 0 -53 -10 -60 -86 -62 -67 -2 -69 -3 -67 -27 0 -14 13
-70 28 -125 26 -93 35 -196 35 -402 0 -20 17 -15 52 16 59 51 187 71 558 85
211 9 276 20 315 57 17 15 42 32 56 38 16 6 48 43 87 103 34 51 67 99 73 106
6 8 17 36 24 64 8 27 15 51 17 52 18 11 107 29 163 33 39 3 75 9 81 14 7 5 15
30 19 54 6 44 13 49 51 44 15 -2 20 25 12 64 -5 23 -14 61 -19 85 -5 23 -9 77
-10 120 -1 109 -11 166 -29 168 -8 1 -31 -7 -50 -17z m51 -140 c3 -63 11 -124
17 -136 7 -12 12 -42 12 -66 0 -37 -5 -48 -25 -61 -14 -9 -25 -22 -24 -29 6
-46 -30 -77 -87 -77 -54 0 -152 -26 -175 -47 -9 -8 -19 -27 -22 -43 -6 -27
-58 -119 -114 -203 -37 -53 -148 -133 -203 -144 -25 -5 -97 -10 -160 -11 -114
-3 -361 -19 -390 -27 -8 -2 -46 -7 -85 -11 -42 -3 -89 -16 -118 -30 -27 -13
-50 -24 -52 -24 -1 0 -5 64 -7 143 -4 110 -11 163 -31 237 -14 52 -24 97 -21
101 2 4 27 10 54 14 54 7 90 39 90 79 0 34 78 188 110 216 24 21 46 28 132 39
130 16 146 18 237 25 41 4 117 15 170 26 53 10 123 21 156 25 106 11 327 56
359 73 17 9 36 17 41 19 6 1 33 9 60 17 28 8 55 13 60 12 6 -2 13 -54 16 -117z"/>
<path d="M825 1705 c-33 -14 -64 -25 -69 -25 -5 0 -28 -12 -50 -26 -41 -26
-42 -28 -40 -75 2 -27 -9 -96 -22 -152 -14 -56 -28 -130 -31 -165 -9 -104 -35
-158 -129 -262 -22 -25 -58 -67 -79 -95 -21 -27 -44 -54 -50 -60 -6 -5 -23
-27 -37 -49 -24 -34 -26 -48 -26 -131 0 -79 3 -100 23 -137 23 -43 55 -173 55
-222 0 -14 5 -28 10 -31 6 -3 10 -15 10 -25 0 -10 11 -31 24 -47 29 -34 142
-93 179 -93 14 0 46 -6 69 -14 50 -17 77 -20 171 -18 66 2 69 3 112 46 40 41
95 130 95 156 0 11 17 52 68 160 14 30 26 57 27 60 3 15 39 76 49 82 6 4 8 8
3 8 -4 0 4 17 17 37 22 34 25 49 25 135 -1 53 -7 123 -14 155 -19 78 -35 214
-35 294 -1 35 -5 84 -10 109 -6 25 -14 89 -19 142 l-9 98 -87 85 c-81 80 -88
85 -128 85 -23 0 -69 -12 -102 -25z m189 -56 c28 -30 64 -64 80 -76 26 -21 28
-29 37 -124 4 -56 11 -109 14 -118 2 -9 9 -74 15 -146 14 -183 18 -220 36
-304 28 -127 18 -183 -64 -341 -38 -74 -84 -173 -102 -220 -41 -104 -93 -186
-131 -205 -63 -33 -291 0 -405 58 -64 32 -87 75 -109 201 -8 48 -27 115 -41
149 -28 66 -40 146 -30 199 7 36 83 144 175 247 107 119 127 158 146 281 8 47
16 96 19 110 3 14 8 41 11 60 2 19 9 53 15 75 5 22 10 56 10 76 0 51 28 73
148 115 93 32 115 28 176 -37z"/>
</g>
</svg>
